<svg xmlns="http://www.w3.org/2000/svg" width="1000" height="320"><rect x="0" y="0" width="1000" height="320" fill="#fff"/><text x="55" y="18" font-size="14" fill="#111">Throughput Comparison: Fixed vs Tuned AIMD</text><line x1="55" y1="30" x2="55" y2="280" stroke="#999"/><line x1="55" y1="280" x2="980" y2="280" stroke="#999"/><polyline fill="none" stroke="#ef4444" stroke-width="2" points="55.00,93.06 59.67,93.06 64.34,104.32 69.02,79.55 73.69,104.32 78.36,84.05 83.03,90.81 87.70,77.30 92.37,75.05 97.05,102.07 101.72,72.79 106.39,102.07 111.06,50.27 115.73,72.79 120.40,120.09 125.08,124.59 129.75,61.53 134.42,90.81 139.09,99.82 143.76,102.07 148.43,72.79 153.11,102.07 157.78,111.08 162.45,113.33 167.12,97.57 171.79,104.32 176.46,120.09 181.14,95.32 185.81,70.54 190.48,66.04 195.15,54.77 199.82,133.60 204.49,68.29 209.17,72.79 213.84,72.79 218.51,45.77 223.18,30.00 227.85,34.50 232.53,34.50 237.20,30.00 241.87,30.00 246.54,36.76 251.21,30.00 255.88,30.00 260.56,30.00 265.23,32.25 269.90,34.50 274.57,32.25 279.24,32.25 283.91,30.00 288.59,30.00 293.26,32.25 297.93,34.50 302.60,32.25 307.27,30.00 311.94,30.00 316.62,32.25 321.29,30.00 325.96,32.25 330.63,30.00 335.30,30.00 339.97,30.00 344.65,34.50 349.32,30.00 353.99,30.00 358.66,32.25 363.33,36.76 368.01,48.02 372.68,48.02 377.35,32.25 382.02,34.50 386.69,36.76 391.36,32.25 396.04,45.77 400.71,43.51 405.38,30.00 410.05,30.00 414.72,32.25 419.39,34.50 424.07,39.01 428.74,45.77 433.41,30.00 438.08,34.50 442.75,34.50 447.42,39.01 452.10,90.81 456.77,117.84 461.44,88.56 466.11,88.56 470.78,81.80 475.45,99.82 480.13,117.84 484.80,102.07 489.47,102.07 494.14,63.78 498.81,70.54 503.48,120.09 508.16,95.32 512.83,63.78 517.50,72.79 522.17,77.30 526.84,70.54 531.52,77.30 536.19,104.32 540.86,95.32 545.53,106.58 550.20,99.82 554.87,84.05 559.55,68.29 564.22,84.05 568.89,99.82 573.56,99.82 578.23,93.06 582.90,106.58 587.58,93.06 592.25,36.76 596.92,34.50 601.59,32.25 606.26,43.51 610.93,36.76 615.61,39.01 620.28,30.00 624.95,30.00 629.62,43.51 634.29,34.50 638.96,34.50 643.64,30.00 648.31,39.01 652.98,30.00 657.65,32.25 662.32,32.25 666.99,30.00 671.67,32.25 676.34,32.25 681.01,30.00 685.68,30.00 690.35,32.25 695.03,34.50 699.70,32.25 704.37,30.00 709.04,30.00 713.71,34.50 718.38,32.25 723.06,36.76 727.73,30.00 732.40,34.50 737.07,30.00 741.74,30.00 746.41,34.50 751.09,32.25 755.76,30.00 760.43,34.50 765.10,34.50 769.77,30.00 774.44,30.00 779.12,34.50 783.79,36.76 788.46,41.26 793.13,32.25 797.80,30.00 802.47,32.25 807.15,34.50 811.82,32.25 816.49,34.50 821.16,30.00 825.83,30.00 830.51,30.00 835.18,32.25 839.85,32.25 844.52,30.00 849.19,30.00 853.86,30.00 858.54,36.76 863.21,32.25 867.88,30.00 872.55,30.00 877.22,30.00 881.89,39.01 886.57,41.26 891.24,30.00 895.91,237.21 900.58,280.00 905.25,280.00 909.92,280.00 914.60,280.00 919.27,280.00 923.94,280.00 928.61,280.00 933.28,280.00 937.95,280.00 942.63,280.00 947.30,280.00 951.97,280.00 956.64,280.00 961.31,280.00 965.98,280.00 970.66,280.00 975.33,280.00 980.00,280.00"/><polyline fill="none" stroke="#2563eb" stroke-width="2" points="55.00,176.40 59.67,79.55 64.34,90.81 69.02,93.06 73.69,81.80 78.36,79.55 83.03,63.78 87.70,88.56 92.37,61.53 97.05,88.56 101.72,72.79 106.39,102.07 111.06,50.27 115.73,72.79 120.40,120.09 125.08,124.59 129.75,61.53 134.42,90.81 139.09,99.82 143.76,102.07 148.43,72.79 153.11,102.07 157.78,111.08 162.45,113.33 167.12,97.57 171.79,104.32 176.46,120.09 181.14,95.32 185.81,70.54 190.48,66.04 195.15,54.77 199.82,133.60 204.49,68.29 209.17,72.79 213.84,72.79 218.51,43.51 223.18,30.00 227.85,30.00 232.53,34.50 237.20,68.29 241.87,131.35 246.54,122.34 251.21,115.59 255.88,77.30 260.56,93.06 265.23,75.05 269.90,81.80 274.57,48.02 279.24,70.54 283.91,61.53 288.59,34.50 293.26,52.52 297.93,30.00 302.60,144.86 307.27,108.83 311.94,97.57 316.62,99.82 321.29,115.59 325.96,169.64 330.63,122.34 335.30,113.33 339.97,122.34 344.65,108.83 349.32,117.84 353.99,108.83 358.66,108.83 363.33,79.55 368.01,86.31 372.68,66.04 377.35,66.04 382.02,61.53 386.69,86.31 391.36,120.09 396.04,81.80 400.71,81.80 405.38,88.56 410.05,84.05 414.72,81.80 419.39,63.78 424.07,52.52 428.74,66.04 433.41,57.03 438.08,43.51 442.75,108.83 447.42,124.59 452.10,84.05 456.77,84.05 461.44,75.05 466.11,66.04 470.78,68.29 475.45,75.05 480.13,50.27 484.80,126.85 489.47,106.58 494.14,77.30 498.81,126.85 503.48,108.83 508.16,95.32 512.83,72.79 517.50,88.56 522.17,66.04 526.84,72.79 531.52,59.28 536.19,70.54 540.86,43.51 545.53,106.58 550.20,99.82 554.87,84.05 559.55,68.29 564.22,84.05 568.89,99.82 573.56,99.82 578.23,93.06 582.90,106.58 587.58,93.06 592.25,34.50 596.92,36.76 601.59,48.02 606.26,117.84 610.93,97.57 615.61,84.05 620.28,81.80 624.95,79.55 629.62,84.05 634.29,72.79 638.96,59.28 643.64,72.79 648.31,36.76 652.98,149.37 657.65,124.59 662.32,106.58 666.99,77.30 671.67,84.05 676.34,88.56 681.01,79.55 685.68,72.79 690.35,68.29 695.03,50.27 699.70,57.03 704.37,41.26 709.04,36.76 713.71,84.05 718.38,86.31 723.06,81.80 727.73,97.57 732.40,48.02 737.07,95.32 741.74,45.77 746.41,41.26 751.09,54.77 755.76,61.53 760.43,36.76 765.10,108.83 769.77,106.58 774.44,81.80 779.12,97.57 783.79,102.07 788.46,54.77 793.13,50.27 797.80,52.52 802.47,120.09 807.15,97.57 811.82,86.31 816.49,81.80 821.16,97.57 825.83,81.80 830.51,84.05 835.18,144.86 839.85,142.61 844.52,124.59 849.19,79.55 853.86,126.85 858.54,99.82 863.21,106.58 867.88,79.55 872.55,95.32 877.22,95.32 881.89,68.29 886.57,57.03 891.24,68.29 895.91,95.32 900.58,280.00 905.25,280.00 909.92,280.00 914.60,280.00 919.27,280.00 923.94,280.00 928.61,280.00 933.28,280.00 937.95,280.00 942.63,280.00 947.30,280.00 951.97,280.00 956.64,280.00 961.31,280.00 965.98,280.00 970.66,280.00 975.33,280.00 980.00,280.00"/><text x="790" y="46" font-size="12" fill="#ef4444">Fixed</text><text x="860" y="46" font-size="12" fill="#2563eb">Tuned AIMD</text><text x="55" y="312" font-size="11" fill="#666">seconds</text></svg>