<svg xmlns="http://www.w3.org/2000/svg" width="1000" height="320"><rect x="0" y="0" width="1000" height="320" fill="#fff"/><text x="55" y="18" font-size="14" fill="#111">Accepted Requests Per Second</text><line x1="55" y1="30" x2="55" y2="280" stroke="#999"/><line x1="55" y1="280" x2="980" y2="280" stroke="#999"/><polyline fill="none" stroke="#ef4444" stroke-width="2" points="55.00,93.06 59.67,93.06 64.34,104.32 69.02,79.55 73.69,104.32 78.36,84.05 83.03,90.81 87.70,77.30 92.37,75.05 97.05,102.07 101.72,72.79 106.39,102.07 111.06,50.27 115.73,72.79 120.40,120.09 125.08,124.59 129.75,61.53 134.42,90.81 139.09,99.82 143.76,102.07 148.43,72.79 153.11,102.07 157.78,111.08 162.45,113.33 167.12,97.57 171.79,104.32 176.46,120.09 181.14,95.32 185.81,70.54 190.48,66.04 195.15,54.77 199.82,133.60 204.49,68.29 209.17,72.79 213.84,72.79 218.51,45.77 223.18,30.00 227.85,34.50 232.53,34.50 237.20,30.00 241.87,30.00 246.54,36.76 251.21,30.00 255.88,30.00 260.56,30.00 265.23,32.25 269.90,34.50 274.57,32.25 279.24,32.25 283.91,30.00 288.59,30.00 293.26,32.25 297.93,34.50 302.60,32.25 307.27,30.00 311.94,30.00 316.62,32.25 321.29,30.00 325.96,32.25 330.63,30.00 335.30,30.00 339.97,30.00 344.65,34.50 349.32,30.00 353.99,30.00 358.66,32.25 363.33,36.76 368.01,48.02 372.68,48.02 377.35,32.25 382.02,34.50 386.69,36.76 391.36,32.25 396.04,45.77 400.71,43.51 405.38,30.00 410.05,30.00 414.72,32.25 419.39,34.50 424.07,39.01 428.74,45.77 433.41,30.00 438.08,34.50 442.75,34.50 447.42,39.01 452.10,90.81 456.77,117.84 461.44,88.56 466.11,88.56 470.78,81.80 475.45,99.82 480.13,117.84 484.80,102.07 489.47,102.07 494.14,63.78 498.81,70.54 503.48,120.09 508.16,95.32 512.83,63.78 517.50,72.79 522.17,77.30 526.84,70.54 531.52,77.30 536.19,104.32 540.86,95.32 545.53,106.58 550.20,99.82 554.87,84.05 559.55,68.29 564.22,84.05 568.89,99.82 573.56,99.82 578.23,93.06 582.90,106.58 587.58,93.06 592.25,36.76 596.92,34.50 601.59,32.25 606.26,43.51 610.93,36.76 615.61,39.01 620.28,30.00 624.95,30.00 629.62,43.51 634.29,34.50 638.96,34.50 643.64,30.00 648.31,39.01 652.98,30.00 657.65,32.25 662.32,32.25 666.99,30.00 671.67,32.25 676.34,32.25 681.01,30.00 685.68,30.00 690.35,32.25 695.03,34.50 699.70,32.25 704.37,30.00 709.04,30.00 713.71,34.50 718.38,32.25 723.06,36.76 727.73,30.00 732.40,34.50 737.07,30.00 741.74,30.00 746.41,34.50 751.09,32.25 755.76,30.00 760.43,34.50 765.10,34.50 769.77,30.00 774.44,30.00 779.12,34.50 783.79,36.76 788.46,41.26 793.13,32.25 797.80,30.00 802.47,32.25 807.15,34.50 811.82,32.25 816.49,34.50 821.16,30.00 825.83,30.00 830.51,30.00 835.18,32.25 839.85,32.25 844.52,30.00 849.19,30.00 853.86,30.00 858.54,36.76 863.21,32.25 867.88,30.00 872.55,30.00 877.22,30.00 881.89,39.01 886.57,41.26 891.24,30.00 895.91,237.21 900.58,280.00 905.25,280.00 909.92,280.00 914.60,280.00 919.27,280.00 923.94,280.00 928.61,280.00 933.28,280.00 937.95,280.00 942.63,280.00 947.30,280.00 951.97,280.00 956.64,280.00 961.31,280.00 965.98,280.00 970.66,280.00 975.33,280.00 980.00,280.00"/><polyline fill="none" stroke="#2563eb" stroke-width="2" points="55.00,198.92 59.67,160.63 64.34,122.34 69.02,30.00 73.69,117.84 78.36,135.86 83.03,129.10 87.70,99.82 92.37,120.09 97.05,102.07 101.72,99.82 106.39,72.79 111.06,88.56 115.73,59.28 120.40,59.28 125.08,54.77 129.75,45.77 134.42,43.51 139.09,135.86 143.76,117.84 148.43,140.36 153.11,124.59 157.78,104.32 162.45,104.32 167.12,113.33 171.79,106.58 176.46,75.05 181.14,59.28 185.81,66.04 190.48,63.78 195.15,54.77 199.82,59.28 204.49,70.54 209.17,70.54 213.84,72.79 218.51,45.77 223.18,115.59 227.85,104.32 232.53,95.32 237.20,99.82 241.87,104.32 246.54,77.30 251.21,72.79 255.88,36.76 260.56,45.77 265.23,45.77 269.90,147.12 274.57,115.59 279.24,129.10 283.91,113.33 288.59,93.06 293.26,99.82 297.93,63.78 302.60,138.11 307.27,93.06 311.94,72.79 316.62,77.30 321.29,30.00 325.96,178.65 330.63,117.84 335.30,115.59 339.97,129.10 344.65,111.08 349.32,124.59 353.99,115.59 358.66,115.59 363.33,86.31 368.01,86.31 372.68,66.04 377.35,72.79 382.02,75.05 386.69,93.06 391.36,140.36 396.04,102.07 400.71,111.08 405.38,115.59 410.05,174.14 414.72,171.89 419.39,162.88 424.07,151.62 428.74,167.39 433.41,142.61 438.08,140.36 442.75,129.10 447.42,144.86 452.10,113.33 456.77,111.08 461.44,99.82 466.11,95.32 470.78,95.32 475.45,95.32 480.13,79.55 484.80,66.04 489.47,72.79 494.14,34.50 498.81,151.62 503.48,144.86 508.16,149.37 512.83,111.08 517.50,124.59 522.17,122.34 526.84,111.08 531.52,104.32 536.19,90.81 540.86,97.57 545.53,68.29 550.20,77.30 554.87,54.77 559.55,43.51 564.22,52.52 568.89,50.27 573.56,153.87 578.23,115.59 582.90,122.34 587.58,133.60 592.25,81.80 596.92,108.83 601.59,88.56 606.26,88.56 610.93,84.05 615.61,59.28 620.28,59.28 624.95,48.02 629.62,48.02 634.29,50.27 638.96,41.26 643.64,113.33 648.31,108.83 652.98,129.10 657.65,97.57 662.32,99.82 666.99,72.79 671.67,77.30 676.34,97.57 681.01,63.78 685.68,66.04 690.35,63.78 695.03,45.77 699.70,45.77 704.37,129.10 709.04,111.08 713.71,99.82 718.38,97.57 723.06,104.32 727.73,111.08 732.40,68.29 737.07,97.57 741.74,54.77 746.41,57.03 751.09,63.78 755.76,72.79 760.43,39.01 765.10,61.53 769.77,131.35 774.44,97.57 779.12,138.11 783.79,151.62 788.46,102.07 793.13,95.32 797.80,90.81 802.47,66.04 807.15,59.28 811.82,57.03 816.49,36.76 821.16,68.29 825.83,48.02 830.51,52.52 835.18,135.86 839.85,131.35 844.52,117.84 849.19,77.30 853.86,120.09 858.54,90.81 863.21,99.82 867.88,75.05 872.55,90.81 877.22,84.05 881.89,72.79 886.57,39.01 891.24,68.29 895.91,117.84 900.58,280.00 905.25,280.00 909.92,280.00 914.60,280.00 919.27,280.00 923.94,280.00 928.61,280.00 933.28,280.00 937.95,280.00 942.63,280.00 947.30,280.00 951.97,280.00 956.64,280.00 961.31,280.00 965.98,280.00 970.66,280.00 975.33,280.00 980.00,280.00"/><text x="790" y="46" font-size="12" fill="#ef4444">Fixed</text><text x="860" y="46" font-size="12" fill="#2563eb">AIMD</text><text x="55" y="312" font-size="11" fill="#666">seconds</text></svg>