<svg xmlns="http://www.w3.org/2000/svg" width="1000" height="320"><rect x="0" y="0" width="1000" height="320" fill="#fff"/><text x="55" y="18" font-size="14" fill="#111">mixed_bursty - Simulated GC freq per second</text><line x1="55" y1="30" x2="55" y2="280" stroke="#999"/><line x1="55" y1="280" x2="980" y2="280" stroke="#999"/><polyline fill="none" stroke="#ef4444" stroke-width="2" points="55.00,280.00 59.67,280.00 64.34,280.00 69.02,30.00 73.69,280.00 78.36,30.00 83.03,30.00 87.70,280.00 92.37,30.00 97.05,280.00 101.72,30.00 106.39,30.00 111.06,280.00 115.73,30.00 120.40,280.00 125.08,30.00 129.75,30.00 134.42,280.00 139.09,30.00 143.76,30.00 148.43,280.00 153.11,30.00 157.78,280.00 162.45,30.00 167.12,280.00 171.79,30.00 176.46,30.00 181.14,280.00 185.81,30.00 190.48,30.00 195.15,280.00 199.82,30.00 204.49,280.00 209.17,30.00 213.84,30.00 218.51,280.00 223.18,30.00 227.85,30.00 232.53,30.00 237.20,280.00 241.87,30.00 246.54,280.00 251.21,30.00 255.88,30.00 260.56,280.00 265.23,30.00 269.90,30.00 274.57,280.00 279.24,30.00 283.91,280.00 288.59,30.00 293.26,30.00 297.93,280.00 302.60,30.00 307.27,30.00 311.94,280.00 316.62,30.00 321.29,30.00 325.96,280.00 330.63,30.00 335.30,280.00 339.97,30.00 344.65,30.00 349.32,280.00 353.99,30.00 358.66,30.00 363.33,280.00 368.01,30.00 372.68,280.00 377.35,30.00 382.02,30.00 386.69,280.00 391.36,30.00 396.04,280.00 400.71,30.00 405.38,30.00 410.05,280.00 414.72,30.00 419.39,30.00 424.07,280.00 428.74,30.00 433.41,280.00 438.08,30.00 442.75,30.00 447.42,280.00 452.10,30.00 456.77,280.00 461.44,30.00 466.11,30.00 470.78,280.00 475.45,30.00 480.13,280.00 484.80,30.00 489.47,280.00 494.14,30.00 498.81,280.00 503.48,30.00 508.16,30.00 512.83,280.00 517.50,30.00 522.17,30.00 526.84,280.00 531.52,30.00 536.19,30.00 540.86,280.00 545.53,30.00 550.20,30.00 554.87,280.00 559.55,30.00 564.22,280.00 568.89,30.00 573.56,280.00 578.23,30.00 582.90,30.00 587.58,280.00 592.25,30.00 596.92,30.00 601.59,280.00 606.26,30.00 610.93,30.00 615.61,280.00 620.28,30.00 624.95,280.00 629.62,30.00 634.29,30.00 638.96,280.00 643.64,30.00 648.31,30.00 652.98,280.00 657.65,30.00 662.32,280.00 666.99,30.00 671.67,30.00 676.34,280.00 681.01,30.00 685.68,280.00 690.35,30.00 695.03,30.00 699.70,280.00 704.37,30.00 709.04,30.00 713.71,280.00 718.38,30.00 723.06,280.00 727.73,30.00 732.40,30.00 737.07,280.00 741.74,30.00 746.41,280.00 751.09,30.00 755.76,30.00 760.43,280.00 765.10,30.00 769.77,30.00 774.44,280.00 779.12,30.00 783.79,280.00 788.46,30.00 793.13,30.00 797.80,280.00 802.47,30.00 807.15,30.00 811.82,280.00 816.49,30.00 821.16,30.00 825.83,280.00 830.51,30.00 835.18,30.00 839.85,280.00 844.52,30.00 849.19,280.00 853.86,30.00 858.54,30.00 863.21,280.00 867.88,30.00 872.55,30.00 877.22,280.00 881.89,30.00 886.57,280.00 891.24,30.00 895.91,30.00 900.58,280.00 905.25,280.00 909.92,280.00 914.60,280.00 919.27,280.00 923.94,280.00 928.61,280.00 933.28,280.00 937.95,280.00 942.63,280.00 947.30,280.00 951.97,280.00 956.64,280.00 961.31,280.00 965.98,280.00 970.66,280.00 975.33,280.00 980.00,280.00"/><polyline fill="none" stroke="#2563eb" stroke-width="2" points="55.00,280.00 59.67,280.00 64.34,280.00 69.02,30.00 73.69,30.00 78.36,280.00 83.03,30.00 87.70,30.00 92.37,280.00 97.05,30.00 101.72,30.00 106.39,280.00 111.06,30.00 115.73,30.00 120.40,30.00 125.08,30.00 129.75,280.00 134.42,30.00 139.09,30.00 143.76,30.00 148.43,280.00 153.11,30.00 157.78,30.00 162.45,280.00 167.12,30.00 171.79,30.00 176.46,280.00 181.14,30.00 185.81,30.00 190.48,30.00 195.15,280.00 199.82,30.00 204.49,280.00 209.17,30.00 213.84,30.00 218.51,280.00 223.18,30.00 227.85,30.00 232.53,30.00 237.20,30.00 241.87,30.00 246.54,30.00 251.21,30.00 255.88,30.00 260.56,30.00 265.23,30.00 269.90,30.00 274.57,30.00 279.24,280.00 283.91,30.00 288.59,30.00 293.26,30.00 297.93,30.00 302.60,30.00 307.27,30.00 311.94,280.00 316.62,30.00 321.29,30.00 325.96,30.00 330.63,280.00 335.30,30.00 339.97,30.00 344.65,30.00 349.32,30.00 353.99,30.00 358.66,280.00 363.33,30.00 368.01,30.00 372.68,30.00 377.35,280.00 382.02,30.00 386.69,30.00 391.36,30.00 396.04,280.00 400.71,30.00 405.38,30.00 410.05,30.00 414.72,280.00 419.39,30.00 424.07,30.00 428.74,30.00 433.41,280.00 438.08,30.00 442.75,30.00 447.42,280.00 452.10,30.00 456.77,30.00 461.44,30.00 466.11,280.00 470.78,30.00 475.45,280.00 480.13,30.00 484.80,30.00 489.47,280.00 494.14,30.00 498.81,280.00 503.48,30.00 508.16,30.00 512.83,280.00 517.50,30.00 522.17,30.00 526.84,30.00 531.52,280.00 536.19,30.00 540.86,30.00 545.53,280.00 550.20,30.00 554.87,280.00 559.55,30.00 564.22,30.00 568.89,280.00 573.56,30.00 578.23,30.00 582.90,280.00 587.58,30.00 592.25,280.00 596.92,30.00 601.59,30.00 606.26,30.00 610.93,30.00 615.61,30.00 620.28,280.00 624.95,30.00 629.62,30.00 634.29,30.00 638.96,30.00 643.64,30.00 648.31,30.00 652.98,30.00 657.65,30.00 662.32,30.00 666.99,30.00 671.67,280.00 676.34,30.00 681.01,30.00 685.68,30.00 690.35,30.00 695.03,30.00 699.70,280.00 704.37,30.00 709.04,30.00 713.71,30.00 718.38,30.00 723.06,30.00 727.73,280.00 732.40,30.00 737.07,30.00 741.74,30.00 746.41,280.00 751.09,30.00 755.76,30.00 760.43,30.00 765.10,30.00 769.77,280.00 774.44,30.00 779.12,30.00 783.79,30.00 788.46,30.00 793.13,280.00 797.80,30.00 802.47,30.00 807.15,30.00 811.82,280.00 816.49,30.00 821.16,30.00 825.83,30.00 830.51,30.00 835.18,280.00 839.85,30.00 844.52,30.00 849.19,280.00 853.86,30.00 858.54,30.00 863.21,30.00 867.88,280.00 872.55,30.00 877.22,30.00 881.89,30.00 886.57,280.00 891.24,30.00 895.91,30.00 900.58,280.00 905.25,280.00 909.92,280.00 914.60,280.00 919.27,280.00 923.94,280.00 928.61,280.00 933.28,280.00 937.95,280.00 942.63,280.00 947.30,280.00 951.97,280.00 956.64,280.00 961.31,280.00 965.98,280.00 970.66,280.00 975.33,280.00 980.00,280.00"/><text x="770" y="46" font-size="12" fill="#ef4444">StaticBucket</text><text x="860" y="46" font-size="12" fill="#2563eb">AdaptiveBucket</text><text x="55" y="312" font-size="11" fill="#666">seconds</text></svg>