<svg xmlns="http://www.w3.org/2000/svg" width="1000" height="320"><rect x="0" y="0" width="1000" height="320" fill="#fff"/><text x="55" y="18" font-size="14" fill="#111">mixed_bursty - TTFT p95 per second</text><line x1="55" y1="30" x2="55" y2="280" stroke="#999"/><line x1="55" y1="280" x2="980" y2="280" stroke="#999"/><polyline fill="none" stroke="#ef4444" stroke-width="2" points="55.00,175.84 59.67,55.03 64.34,42.52 69.02,46.35 73.69,38.48 78.36,41.98 83.03,42.43 87.70,50.78 92.37,48.59 97.05,47.18 101.72,47.45 106.39,47.13 111.06,43.43 115.73,45.32 120.40,46.45 125.08,44.59 129.75,50.61 134.42,42.71 139.09,40.45 143.76,49.93 148.43,48.68 153.11,43.09 157.78,48.05 162.45,48.79 167.12,42.93 171.79,48.67 176.46,50.12 181.14,45.05 185.81,45.43 190.48,42.44 195.15,50.48 199.82,45.24 204.49,46.86 209.17,45.00 213.84,48.55 218.51,52.08 223.18,44.52 227.85,44.75 232.53,43.00 237.20,43.17 241.87,44.24 246.54,43.67 251.21,43.21 255.88,42.05 260.56,44.12 265.23,42.72 269.90,43.75 274.57,43.40 279.24,41.88 283.91,43.01 288.59,44.40 293.26,41.08 297.93,42.38 302.60,41.67 307.27,44.23 311.94,40.76 316.62,42.74 321.29,42.75 325.96,43.78 330.63,42.13 335.30,42.22 339.97,42.98 344.65,42.70 349.32,42.52 353.99,42.71 358.66,42.33 363.33,43.33 368.01,44.51 372.68,44.21 377.35,41.67 382.02,42.34 386.69,43.89 391.36,43.25 396.04,42.71 400.71,43.00 405.38,42.62 410.05,41.40 414.72,42.10 419.39,41.46 424.07,42.11 428.74,44.69 433.41,42.31 438.08,47.89 442.75,49.81 447.42,45.94 452.10,47.06 456.77,47.45 461.44,45.21 466.11,45.92 470.78,46.80 475.45,43.36 480.13,45.81 484.80,45.92 489.47,43.52 494.14,44.49 498.81,44.96 503.48,44.92 508.16,41.06 512.83,50.29 517.50,42.02 522.17,44.90 526.84,47.53 531.52,46.57 536.19,45.77 540.86,47.38 545.53,42.67 550.20,47.18 554.87,45.96 559.55,43.80 564.22,45.56 568.89,47.50 573.56,42.02 578.23,43.68 582.90,48.36 587.58,49.52 592.25,43.98 596.92,44.45 601.59,43.80 606.26,44.03 610.93,43.29 615.61,40.79 620.28,45.29 624.95,43.08 629.62,44.16 634.29,42.57 638.96,44.72 643.64,43.80 648.31,42.94 652.98,43.03 657.65,42.41 662.32,43.40 666.99,43.39 671.67,43.08 676.34,44.15 681.01,40.77 685.68,42.16 690.35,43.03 695.03,42.83 699.70,42.65 704.37,41.26 709.04,41.43 713.71,40.50 718.38,41.76 723.06,43.63 727.73,40.67 732.40,42.48 737.07,43.74 741.74,43.48 746.41,43.13 751.09,41.89 755.76,41.71 760.43,40.62 765.10,43.22 769.77,43.11 774.44,43.04 779.12,43.78 783.79,42.70 788.46,42.14 793.13,41.33 797.80,40.49 802.47,42.54 807.15,43.15 811.82,44.56 816.49,42.07 821.16,42.55 825.83,43.33 830.51,44.01 835.18,43.43 839.85,43.43 844.52,40.53 849.19,42.07 853.86,42.98 858.54,43.28 863.21,43.46 867.88,43.97 872.55,41.84 877.22,44.50 881.89,45.95 886.57,43.30 891.24,45.84 895.91,46.36 900.58,41.07 905.25,280.00 909.92,280.00 914.60,280.00 919.27,280.00 923.94,280.00 928.61,280.00 933.28,280.00 937.95,280.00 942.63,280.00 947.30,280.00 951.97,280.00 956.64,280.00 961.31,280.00 965.98,280.00 970.66,280.00 975.33,280.00 980.00,280.00"/><polyline fill="none" stroke="#2563eb" stroke-width="2" points="55.00,175.84 59.67,73.21 64.34,46.16 69.02,46.35 73.69,40.60 78.36,41.90 83.03,44.04 87.70,51.20 92.37,46.42 97.05,48.92 101.72,48.27 106.39,45.90 111.06,43.09 115.73,32.95 120.40,48.70 125.08,48.58 129.75,47.23 134.42,43.18 139.09,38.10 143.76,43.62 148.43,40.77 153.11,45.30 157.78,46.06 162.45,48.79 167.12,49.74 171.79,31.52 176.46,46.63 181.14,44.74 185.81,44.34 190.48,41.91 195.15,45.58 199.82,42.44 204.49,41.93 209.17,44.51 213.84,46.34 218.51,48.45 223.18,44.52 227.85,42.77 232.53,41.11 237.20,44.68 241.87,43.88 246.54,44.14 251.21,42.97 255.88,43.44 260.56,42.33 265.23,46.83 269.90,44.90 274.57,43.48 279.24,39.27 283.91,41.46 288.59,42.08 293.26,39.42 297.93,41.95 302.60,41.67 307.27,39.05 311.94,43.43 316.62,37.50 321.29,43.87 325.96,41.37 330.63,42.72 335.30,40.75 339.97,43.12 344.65,41.23 349.32,39.24 353.99,41.98 358.66,42.74 363.33,44.04 368.01,42.52 372.68,41.10 377.35,41.27 382.02,41.07 386.69,43.38 391.36,34.97 396.04,41.81 400.71,43.16 405.38,42.53 410.05,41.46 414.72,39.70 419.39,40.14 424.07,42.11 428.74,40.54 433.41,38.99 438.08,37.06 442.75,44.01 447.42,42.54 452.10,43.10 456.77,48.04 461.44,44.68 466.11,45.30 470.78,41.40 475.45,42.78 480.13,49.41 484.80,41.34 489.47,42.25 494.14,47.68 498.81,45.92 503.48,46.43 508.16,38.56 512.83,48.48 517.50,42.02 522.17,45.02 526.84,48.12 531.52,44.18 536.19,40.62 540.86,47.38 545.53,42.67 550.20,43.54 554.87,52.27 559.55,36.98 564.22,45.56 568.89,48.16 573.56,42.02 578.23,44.95 582.90,48.36 587.58,46.33 592.25,45.11 596.92,46.02 601.59,42.61 606.26,43.68 610.93,43.29 615.61,42.48 620.28,43.93 624.95,43.40 629.62,43.92 634.29,44.35 638.96,43.86 643.64,44.12 648.31,41.50 652.98,44.40 657.65,43.44 662.32,45.13 666.99,39.93 671.67,41.91 676.34,43.48 681.01,39.16 685.68,42.23 690.35,41.68 695.03,42.87 699.70,42.10 704.37,42.67 709.04,41.09 713.71,40.50 718.38,41.76 723.06,41.41 727.73,40.67 732.40,42.48 737.07,43.74 741.74,43.48 746.41,42.18 751.09,41.76 755.76,41.51 760.43,42.92 765.10,41.50 769.77,43.60 774.44,42.66 779.12,43.52 783.79,42.70 788.46,42.56 793.13,41.90 797.80,39.14 802.47,42.60 807.15,42.34 811.82,41.54 816.49,42.07 821.16,38.42 825.83,41.65 830.51,40.50 835.18,45.00 839.85,33.32 844.52,32.28 849.19,41.07 853.86,40.92 858.54,42.03 863.21,33.58 867.88,40.02 872.55,39.69 877.22,39.86 881.89,42.93 886.57,30.00 891.24,41.69 895.91,37.55 900.58,34.97 905.25,280.00 909.92,280.00 914.60,280.00 919.27,280.00 923.94,280.00 928.61,280.00 933.28,280.00 937.95,280.00 942.63,280.00 947.30,280.00 951.97,280.00 956.64,280.00 961.31,280.00 965.98,280.00 970.66,280.00 975.33,280.00 980.00,280.00"/><text x="770" y="46" font-size="12" fill="#ef4444">StaticBucket</text><text x="860" y="46" font-size="12" fill="#2563eb">AdaptiveBucket</text><text x="55" y="312" font-size="11" fill="#666">seconds</text></svg>