<svg xmlns="http://www.w3.org/2000/svg" width="1000" height="320"><rect x="0" y="0" width="1000" height="320" fill="#fff"/><text x="55" y="18" font-size="14" fill="#111">token_heavy - TTFT p95 per second</text><line x1="55" y1="30" x2="55" y2="280" stroke="#999"/><line x1="55" y1="280" x2="980" y2="280" stroke="#999"/><polyline fill="none" stroke="#ef4444" stroke-width="2" points="55.00,280.00 59.67,59.53 64.34,51.28 69.02,52.49 73.69,49.03 78.36,50.28 83.03,54.00 87.70,49.25 92.37,54.76 97.05,53.63 101.72,53.81 106.39,53.14 111.06,48.62 115.73,55.78 120.40,52.26 125.08,47.50 129.75,54.86 134.42,50.36 139.09,45.56 143.76,48.29 148.43,52.23 153.11,53.58 157.78,52.54 162.45,54.06 167.12,46.73 171.79,48.04 176.46,47.06 181.14,47.33 185.81,49.67 190.48,46.46 195.15,50.91 199.82,53.02 204.49,50.52 209.17,45.25 213.84,53.09 218.51,51.96 223.18,53.30 227.85,51.23 232.53,48.61 237.20,50.83 241.87,51.18 246.54,49.81 251.21,48.44 255.88,51.00 260.56,50.49 265.23,46.44 269.90,47.76 274.57,50.85 279.24,52.86 283.91,47.99 288.59,53.23 293.26,52.73 297.93,50.85 302.60,51.63 307.27,52.26 311.94,54.20 316.62,47.59 321.29,50.26 325.96,50.30 330.63,52.51 335.30,52.66 339.97,47.38 344.65,48.08 349.32,50.76 353.99,53.10 358.66,48.69 363.33,52.38 368.01,53.06 372.68,51.45 377.35,48.41 382.02,50.77 386.69,50.19 391.36,46.20 396.04,55.66 400.71,51.63 405.38,50.11 410.05,49.46 414.72,51.51 419.39,51.16 424.07,54.85 428.74,47.24 433.41,49.52 438.08,51.86 442.75,55.52 447.42,49.33 452.10,53.64 456.77,51.64 461.44,53.49 466.11,47.73 470.78,46.66 475.45,51.48 480.13,49.16 484.80,52.88 489.47,53.89 494.14,54.19 498.81,55.09 503.48,51.28 508.16,48.88 512.83,48.73 517.50,45.68 522.17,51.26 526.84,52.89 531.52,50.61 536.19,49.55 540.86,48.46 545.53,49.73 550.20,57.02 554.87,48.98 559.55,56.32 564.22,55.07 568.89,53.09 573.56,52.22 578.23,58.34 582.90,45.06 587.58,53.81 592.25,52.88 596.92,52.62 601.59,50.48 606.26,50.22 610.93,51.68 615.61,52.46 620.28,53.14 624.95,53.44 629.62,50.96 634.29,50.96 638.96,50.53 643.64,47.55 648.31,47.93 652.98,51.25 657.65,45.86 662.32,50.19 666.99,52.70 671.67,51.56 676.34,54.46 681.01,47.64 685.68,49.42 690.35,49.62 695.03,50.67 699.70,46.10 704.37,46.99 709.04,51.03 713.71,50.27 718.38,44.17 723.06,51.09 727.73,51.09 732.40,50.11 737.07,52.15 741.74,54.34 746.41,49.78 751.09,50.47 755.76,51.30 760.43,51.20 765.10,55.60 769.77,49.18 774.44,42.98 779.12,52.43 783.79,54.57 788.46,44.60 793.13,52.69 797.80,45.58 802.47,51.60 807.15,52.09 811.82,51.72 816.49,49.22 821.16,47.49 825.83,51.52 830.51,50.55 835.18,50.45 839.85,53.29 844.52,47.23 849.19,53.59 853.86,46.71 858.54,48.25 863.21,46.99 867.88,47.91 872.55,50.73 877.22,50.10 881.89,54.05 886.57,47.59 891.24,50.90 895.91,58.50 900.58,53.48 905.25,280.00 909.92,280.00 914.60,280.00 919.27,280.00 923.94,280.00 928.61,280.00 933.28,280.00 937.95,280.00 942.63,280.00 947.30,280.00 951.97,280.00 956.64,280.00 961.31,280.00 965.98,280.00 970.66,280.00 975.33,280.00 980.00,280.00"/><polyline fill="none" stroke="#2563eb" stroke-width="2" points="55.00,280.00 59.67,56.34 64.34,51.28 69.02,45.48 73.69,48.99 78.36,48.16 83.03,50.85 87.70,45.82 92.37,47.62 97.05,49.66 101.72,47.81 106.39,45.34 111.06,43.12 115.73,49.41 120.40,43.78 125.08,42.87 129.75,38.73 134.42,41.77 139.09,34.20 143.76,39.45 148.43,38.24 153.11,36.72 157.78,40.60 162.45,35.68 167.12,33.60 171.79,33.68 176.46,43.48 181.14,30.79 185.81,36.38 190.48,37.89 195.15,38.60 199.82,34.60 204.49,34.69 209.17,37.01 213.84,38.92 218.51,31.55 223.18,38.98 227.85,31.72 232.53,34.39 237.20,34.69 241.87,36.39 246.54,31.40 251.21,37.67 255.88,34.03 260.56,34.04 265.23,40.02 269.90,39.47 274.57,32.74 279.24,38.26 283.91,32.77 288.59,33.75 293.26,33.53 297.93,36.94 302.60,38.05 307.27,35.36 311.94,33.64 316.62,34.38 321.29,38.86 325.96,31.71 330.63,33.60 335.30,33.88 339.97,34.45 344.65,37.21 349.32,33.67 353.99,34.24 358.66,33.67 363.33,32.82 368.01,35.48 372.68,33.15 377.35,33.09 382.02,32.91 386.69,32.92 391.36,35.44 396.04,33.05 400.71,32.24 405.38,34.73 410.05,31.26 414.72,32.14 419.39,32.57 424.07,32.44 428.74,36.19 433.41,33.20 438.08,36.67 442.75,34.95 447.42,33.86 452.10,32.08 456.77,37.06 461.44,34.01 466.11,40.43 470.78,36.21 475.45,32.49 480.13,34.77 484.80,32.65 489.47,34.34 494.14,34.88 498.81,34.62 503.48,33.86 508.16,33.15 512.83,33.24 517.50,36.13 522.17,34.73 526.84,35.53 531.52,33.97 536.19,33.55 540.86,33.49 545.53,34.17 550.20,35.23 554.87,33.78 559.55,32.22 564.22,34.07 568.89,37.31 573.56,35.58 578.23,38.87 582.90,36.46 587.58,36.54 592.25,34.33 596.92,35.08 601.59,37.33 606.26,32.03 610.93,36.65 615.61,36.26 620.28,33.59 624.95,33.53 629.62,37.49 634.29,35.23 638.96,35.30 643.64,36.62 648.31,34.72 652.98,34.81 657.65,34.18 662.32,33.43 666.99,34.39 671.67,36.16 676.34,33.10 681.01,36.01 685.68,33.24 690.35,33.93 695.03,31.95 699.70,39.97 704.37,31.61 709.04,36.31 713.71,34.28 718.38,33.87 723.06,37.24 727.73,35.27 732.40,35.09 737.07,34.24 741.74,32.02 746.41,32.30 751.09,34.27 755.76,36.80 760.43,34.06 765.10,35.04 769.77,34.67 774.44,33.70 779.12,34.93 783.79,32.75 788.46,34.90 793.13,32.83 797.80,34.96 802.47,32.85 807.15,34.33 811.82,32.26 816.49,34.85 821.16,32.76 825.83,33.93 830.51,32.91 835.18,31.54 839.85,32.59 844.52,31.37 849.19,30.00 853.86,31.83 858.54,33.70 863.21,33.43 867.88,32.83 872.55,32.92 877.22,32.47 881.89,36.35 886.57,36.78 891.24,34.45 895.91,36.70 900.58,35.21 905.25,280.00 909.92,280.00 914.60,280.00 919.27,280.00 923.94,280.00 928.61,280.00 933.28,280.00 937.95,280.00 942.63,280.00 947.30,280.00 951.97,280.00 956.64,280.00 961.31,280.00 965.98,280.00 970.66,280.00 975.33,280.00 980.00,280.00"/><text x="770" y="46" font-size="12" fill="#ef4444">StaticBucket</text><text x="860" y="46" font-size="12" fill="#2563eb">AdaptiveBucket</text><text x="55" y="312" font-size="11" fill="#666">seconds</text></svg>