<svg xmlns="http://www.w3.org/2000/svg" width="1000" height="320"><rect x="0" y="0" width="1000" height="320" fill="#fff"/><text x="55" y="18" font-size="14" fill="#111">long_context: TTFT p95 per second</text><line x1="55" y1="30" x2="55" y2="280" stroke="#999"/><line x1="55" y1="280" x2="980" y2="280" stroke="#999"/><polyline fill="none" stroke="#ef4444" stroke-width="2" points="55.00,245.67 59.67,230.76 64.34,227.81 69.02,227.47 73.69,227.55 78.36,227.10 83.03,227.77 87.70,227.47 92.37,228.38 97.05,227.56 101.72,228.22 106.39,227.62 111.06,202.53 115.73,154.05 120.40,53.48 125.08,46.38 129.75,45.63 134.42,50.24 139.09,45.47 143.76,47.98 148.43,45.96 153.11,47.20 157.78,48.94 162.45,49.24 167.12,48.33 171.79,49.76 176.46,49.44 181.14,45.86 185.81,49.24 190.48,48.86 195.15,44.68 199.82,49.03 204.49,47.16 209.17,47.45 213.84,47.70 218.51,46.61 223.18,48.78 227.85,40.02 232.53,46.71 237.20,50.15 241.87,51.75 246.54,45.57 251.21,48.78 255.88,47.52 260.56,46.66 265.23,45.02 269.90,49.63 274.57,44.18 279.24,46.83 283.91,46.35 288.59,49.27 293.26,52.16 297.93,48.90 302.60,46.36 307.27,49.83 311.94,51.15 316.62,48.34 321.29,53.72 325.96,50.63 330.63,48.93 335.30,45.48 339.97,47.15 344.65,51.18 349.32,48.82 353.99,45.35 358.66,49.97 363.33,50.07 368.01,50.77 372.68,51.49 377.35,53.72 382.02,44.88 386.69,43.45 391.36,47.87 396.04,46.43 400.71,49.61 405.38,51.32 410.05,48.86 414.72,48.38 419.39,43.98 424.07,49.66 428.74,46.25 433.41,48.98 438.08,48.88 442.75,51.47 447.42,48.92 452.10,48.05 456.77,47.95 461.44,49.34 466.11,49.13 470.78,47.80 475.45,47.89 480.13,44.92 484.80,47.38 489.47,47.58 494.14,49.64 498.81,47.83 503.48,44.04 508.16,48.48 512.83,48.97 517.50,45.90 522.17,49.59 526.84,48.77 531.52,50.50 536.19,50.17 540.86,49.17 545.53,52.05 550.20,48.52 554.87,49.81 559.55,49.60 564.22,47.64 568.89,51.85 573.56,48.20 578.23,45.82 582.90,47.63 587.58,45.30 592.25,50.69 596.92,47.76 601.59,49.24 606.26,44.28 610.93,48.04 615.61,46.38 620.28,48.58 624.95,47.51 629.62,49.41 634.29,49.57 638.96,49.39 643.64,46.03 648.31,45.95 652.98,53.36 657.65,48.66 662.32,46.93 666.99,44.56 671.67,45.00 676.34,45.58 681.01,49.93 685.68,45.98 690.35,48.42 695.03,48.38 699.70,49.95 704.37,50.30 709.04,46.50 713.71,49.01 718.38,36.61 723.06,46.28 727.73,45.15 732.40,50.51 737.07,41.55 741.74,43.48 746.41,49.99 751.09,46.19 755.76,48.39 760.43,48.43 765.10,45.78 769.77,46.18 774.44,47.01 779.12,47.57 783.79,51.09 788.46,47.28 793.13,50.83 797.80,51.51 802.47,47.92 807.15,46.55 811.82,48.19 816.49,48.88 821.16,52.67 825.83,46.87 830.51,47.91 835.18,45.70 839.85,45.90 844.52,45.22 849.19,47.87 853.86,46.10 858.54,46.70 863.21,49.79 867.88,49.68 872.55,49.84 877.22,42.99 881.89,49.31 886.57,47.91 891.24,47.91 895.91,51.03 900.58,46.93 905.25,45.43 909.92,280.00 914.60,280.00 919.27,280.00 923.94,280.00 928.61,280.00 933.28,280.00 937.95,280.00 942.63,280.00 947.30,280.00 951.97,280.00 956.64,280.00 961.31,280.00 965.98,280.00 970.66,280.00 975.33,280.00 980.00,280.00"/><polyline fill="none" stroke="#2563eb" stroke-width="2" points="55.00,280.00 59.67,81.73 64.34,52.37 69.02,58.95 73.69,57.04 78.36,61.39 83.03,53.45 87.70,55.68 92.37,54.97 97.05,50.69 101.72,44.81 106.39,54.41 111.06,47.56 115.73,49.57 120.40,48.93 125.08,51.63 129.75,47.69 134.42,45.95 139.09,52.54 143.76,50.97 148.43,53.13 153.11,50.31 157.78,51.27 162.45,51.22 167.12,51.82 171.79,47.01 176.46,49.88 181.14,45.86 185.81,45.00 190.48,47.11 195.15,44.68 199.82,48.40 204.49,47.16 209.17,43.27 213.84,46.38 218.51,47.16 223.18,42.30 227.85,44.22 232.53,34.90 237.20,60.29 241.87,39.80 246.54,44.53 251.21,45.14 255.88,42.27 260.56,36.78 265.23,56.55 269.90,54.58 274.57,34.33 279.24,47.55 283.91,46.25 288.59,43.75 293.26,60.05 297.93,33.88 302.60,38.62 307.27,52.24 311.94,36.30 316.62,46.29 321.29,44.46 325.96,36.15 330.63,34.15 335.30,45.74 339.97,51.94 344.65,38.86 349.32,44.02 353.99,52.82 358.66,44.67 363.33,52.02 368.01,38.82 372.68,46.64 377.35,46.68 382.02,42.71 386.69,33.41 391.36,47.87 396.04,40.57 400.71,46.50 405.38,36.44 410.05,31.09 414.72,43.98 419.39,38.20 424.07,33.74 428.74,46.57 433.41,36.51 438.08,31.68 442.75,31.54 447.42,30.32 452.10,38.33 456.77,33.89 461.44,52.51 466.11,32.80 470.78,45.79 475.45,31.71 480.13,33.58 484.80,32.70 489.47,40.16 494.14,47.15 498.81,32.19 503.48,34.61 508.16,33.33 512.83,34.04 517.50,33.13 522.17,30.33 526.84,30.00 531.52,34.63 536.19,30.65 540.86,34.15 545.53,31.19 550.20,33.00 554.87,31.89 559.55,33.00 564.22,31.22 568.89,52.98 573.56,31.02 578.23,36.30 582.90,37.56 587.58,51.91 592.25,32.30 596.92,43.87 601.59,31.73 606.26,33.80 610.93,33.39 615.61,44.29 620.28,37.90 624.95,50.86 629.62,30.26 634.29,50.54 638.96,30.42 643.64,41.77 648.31,46.25 652.98,56.04 657.65,31.45 662.32,34.00 666.99,45.37 671.67,30.91 676.34,48.16 681.01,31.69 685.68,34.88 690.35,48.73 695.03,41.03 699.70,34.20 704.37,38.46 709.04,47.83 713.71,34.37 718.38,47.33 723.06,43.18 727.73,41.33 732.40,31.89 737.07,43.63 741.74,33.21 746.41,45.74 751.09,35.81 755.76,48.45 760.43,34.57 765.10,36.01 769.77,39.72 774.44,42.97 779.12,43.23 783.79,34.19 788.46,46.91 793.13,44.42 797.80,54.14 802.47,31.55 807.15,41.51 811.82,51.85 816.49,31.89 821.16,49.34 825.83,36.56 830.51,35.21 835.18,34.10 839.85,47.62 844.52,41.83 849.19,33.71 853.86,45.05 858.54,33.67 863.21,35.64 867.88,44.65 872.55,50.76 877.22,40.54 881.89,46.31 886.57,45.53 891.24,33.27 895.91,39.60 900.58,46.93 905.25,32.89 909.92,280.00 914.60,280.00 919.27,280.00 923.94,280.00 928.61,280.00 933.28,280.00 937.95,280.00 942.63,280.00 947.30,280.00 951.97,280.00 956.64,280.00 961.31,280.00 965.98,280.00 970.66,280.00 975.33,280.00 980.00,280.00"/><text x="760" y="46" font-size="12" fill="#ef4444">Traditional</text><text x="860" y="46" font-size="12" fill="#2563eb">FullPipeline</text></svg>