<svg xmlns="http://www.w3.org/2000/svg" width="1000" height="320"><rect x="0" y="0" width="1000" height="320" fill="#fff"/><text x="55" y="18" font-size="14" fill="#111">balanced_steady: TTFT p95 per second</text><line x1="55" y1="30" x2="55" y2="280" stroke="#999"/><line x1="55" y1="280" x2="980" y2="280" stroke="#999"/><polyline fill="none" stroke="#ef4444" stroke-width="2" points="55.00,256.14 59.67,246.89 64.34,249.92 69.02,243.72 73.69,243.44 78.36,243.87 83.03,241.90 87.70,243.14 92.37,247.88 97.05,242.64 101.72,247.97 106.39,243.20 111.06,243.02 115.73,247.51 120.40,241.13 125.08,241.24 129.75,238.89 134.42,249.55 139.09,247.56 143.76,247.43 148.43,245.35 153.11,249.16 157.78,247.90 162.45,242.44 167.12,248.36 171.79,245.46 176.46,248.95 181.14,237.73 185.81,243.90 190.48,241.03 195.15,248.15 199.82,247.85 204.49,241.61 209.17,244.29 213.84,246.07 218.51,248.50 223.18,246.08 227.85,243.17 232.53,241.29 237.20,240.44 241.87,242.35 246.54,247.64 251.21,252.91 255.88,254.31 260.56,247.18 265.23,254.89 269.90,249.38 274.57,246.52 279.24,243.62 283.91,249.64 288.59,257.75 293.26,251.34 297.93,243.27 302.60,245.46 307.27,247.42 311.94,244.19 316.62,247.33 321.29,245.13 325.96,240.53 330.63,242.49 335.30,241.78 339.97,245.75 344.65,245.79 349.32,247.45 353.99,242.75 358.66,243.81 363.33,242.45 368.01,243.58 372.68,250.77 377.35,246.43 382.02,241.54 386.69,247.17 391.36,241.46 396.04,244.89 400.71,238.17 405.38,244.88 410.05,239.01 414.72,244.03 419.39,247.67 424.07,244.52 428.74,241.88 433.41,244.67 438.08,244.76 442.75,243.78 447.42,249.68 452.10,241.42 456.77,245.72 461.44,243.50 466.11,246.01 470.78,249.93 475.45,245.82 480.13,239.84 484.80,246.16 489.47,240.32 494.14,246.72 498.81,247.73 503.48,251.34 508.16,256.06 512.83,245.35 517.50,244.49 522.17,246.39 526.84,242.51 531.52,236.62 536.19,242.21 540.86,251.62 545.53,242.03 550.20,239.79 554.87,254.97 559.55,244.26 564.22,248.74 568.89,251.86 573.56,243.48 578.23,240.62 582.90,242.55 587.58,241.22 592.25,241.92 596.92,241.84 601.59,242.05 606.26,245.50 610.93,243.24 615.61,244.06 620.28,240.29 624.95,239.98 629.62,250.03 634.29,247.79 638.96,240.49 643.64,246.08 648.31,247.11 652.98,247.31 657.65,251.17 662.32,243.28 666.99,240.79 671.67,246.55 676.34,238.60 681.01,246.44 685.68,243.58 690.35,243.93 695.03,241.24 699.70,257.01 704.37,253.19 709.04,245.33 713.71,241.86 718.38,242.19 723.06,238.97 727.73,251.64 732.40,253.51 737.07,248.24 741.74,242.23 746.41,246.94 751.09,250.24 755.76,245.31 760.43,239.67 765.10,246.37 769.77,249.65 774.44,244.25 779.12,245.88 783.79,246.27 788.46,247.73 793.13,243.75 797.80,252.98 802.47,247.68 807.15,240.33 811.82,244.41 816.49,244.35 821.16,249.95 825.83,257.08 830.51,247.59 835.18,237.25 839.85,239.61 844.52,245.35 849.19,240.99 853.86,245.04 858.54,244.88 863.21,246.44 867.88,250.56 872.55,244.38 877.22,244.83 881.89,251.38 886.57,244.30 891.24,256.01 895.91,238.12 900.58,280.00 905.25,280.00 909.92,280.00 914.60,280.00 919.27,280.00 923.94,280.00 928.61,280.00 933.28,280.00 937.95,280.00 942.63,280.00 947.30,280.00 951.97,280.00 956.64,280.00 961.31,280.00 965.98,280.00 970.66,280.00 975.33,280.00 980.00,280.00"/><polyline fill="none" stroke="#2563eb" stroke-width="2" points="55.00,180.07 59.67,108.91 64.34,58.90 69.02,55.38 73.69,55.95 78.36,52.82 83.03,56.30 87.70,55.16 92.37,55.33 97.05,56.31 101.72,55.14 106.39,52.71 111.06,54.58 115.73,55.78 120.40,54.08 125.08,56.50 129.75,49.94 134.42,50.86 139.09,55.85 143.76,57.12 148.43,56.88 153.11,49.34 157.78,57.50 162.45,53.24 167.12,50.92 171.79,56.80 176.46,43.43 181.14,51.60 185.81,53.40 190.48,56.53 195.15,51.59 199.82,61.94 204.49,51.15 209.17,55.88 213.84,49.77 218.51,55.45 223.18,46.52 227.85,50.00 232.53,49.29 237.20,52.08 241.87,52.26 246.54,52.12 251.21,56.67 255.88,49.37 260.56,52.78 265.23,50.47 269.90,53.92 274.57,59.61 279.24,54.98 283.91,46.14 288.59,53.30 293.26,53.66 297.93,52.61 302.60,55.07 307.27,51.68 311.94,47.99 316.62,52.13 321.29,49.36 325.96,45.91 330.63,52.77 335.30,40.31 339.97,53.27 344.65,45.53 349.32,55.77 353.99,41.59 358.66,41.48 363.33,48.87 368.01,51.26 372.68,36.34 377.35,50.55 382.02,40.61 386.69,35.50 391.36,53.10 396.04,37.95 400.71,37.65 405.38,52.35 410.05,45.86 414.72,48.72 419.39,51.38 424.07,57.03 428.74,53.64 433.41,39.69 438.08,50.46 442.75,47.08 447.42,52.59 452.10,51.16 456.77,38.23 461.44,49.33 466.11,49.14 470.78,41.36 475.45,52.25 480.13,38.92 484.80,39.11 489.47,39.02 494.14,47.12 498.81,46.50 503.48,51.02 508.16,46.46 512.83,55.85 517.50,37.69 522.17,40.76 526.84,52.23 531.52,50.10 536.19,33.81 540.86,43.24 545.53,52.07 550.20,39.63 554.87,41.04 559.55,50.13 564.22,41.95 568.89,50.95 573.56,44.94 578.23,39.36 582.90,35.82 587.58,45.86 592.25,42.05 596.92,51.44 601.59,48.62 606.26,53.24 610.93,53.40 615.61,38.00 620.28,44.47 624.95,45.58 629.62,46.79 634.29,51.61 638.96,43.88 643.64,40.27 648.31,49.74 652.98,47.56 657.65,51.75 662.32,54.13 666.99,55.59 671.67,50.04 676.34,53.36 681.01,48.93 685.68,45.22 690.35,48.39 695.03,46.41 699.70,49.69 704.37,54.77 709.04,52.27 713.71,41.88 718.38,48.64 723.06,51.53 727.73,43.72 732.40,51.43 737.07,53.60 741.74,40.99 746.41,49.47 751.09,50.23 755.76,43.49 760.43,45.07 765.10,40.09 769.77,48.92 774.44,42.87 779.12,58.21 783.79,51.19 788.46,51.95 793.13,56.42 797.80,43.52 802.47,46.95 807.15,53.25 811.82,49.14 816.49,48.30 821.16,55.06 825.83,55.79 830.51,81.19 835.18,57.50 839.85,30.00 844.52,52.58 849.19,53.46 853.86,52.94 858.54,51.23 863.21,46.73 867.88,52.77 872.55,47.74 877.22,45.67 881.89,55.95 886.57,49.88 891.24,54.74 895.91,49.46 900.58,43.31 905.25,41.41 909.92,280.00 914.60,280.00 919.27,280.00 923.94,280.00 928.61,280.00 933.28,280.00 937.95,280.00 942.63,280.00 947.30,280.00 951.97,280.00 956.64,280.00 961.31,280.00 965.98,280.00 970.66,280.00 975.33,280.00 980.00,280.00"/><text x="760" y="46" font-size="12" fill="#ef4444">Traditional</text><text x="860" y="46" font-size="12" fill="#2563eb">FullPipeline</text></svg>