<svg xmlns="http://www.w3.org/2000/svg" width="1000" height="320"><rect x="0" y="0" width="1000" height="320" fill="#fff"/><text x="55" y="18" font-size="14" fill="#111">token_heavy: GC freq per second</text><line x1="55" y1="30" x2="55" y2="280" stroke="#999"/><line x1="55" y1="280" x2="980" y2="280" stroke="#999"/><polyline fill="none" stroke="#ef4444" stroke-width="2" points="55.00,80.00 59.67,80.00 64.34,80.00 69.02,30.00 73.69,80.00 78.36,80.00 83.03,30.00 87.70,80.00 92.37,130.00 97.05,80.00 101.72,80.00 106.39,130.00 111.06,180.00 115.73,280.00 120.40,230.00 125.08,230.00 129.75,280.00 134.42,230.00 139.09,230.00 143.76,280.00 148.43,230.00 153.11,230.00 157.78,280.00 162.45,230.00 167.12,230.00 171.79,280.00 176.46,230.00 181.14,230.00 185.81,280.00 190.48,230.00 195.15,230.00 199.82,280.00 204.49,230.00 209.17,230.00 213.84,280.00 218.51,230.00 223.18,230.00 227.85,280.00 232.53,230.00 237.20,230.00 241.87,280.00 246.54,230.00 251.21,230.00 255.88,280.00 260.56,230.00 265.23,230.00 269.90,280.00 274.57,230.00 279.24,230.00 283.91,280.00 288.59,230.00 293.26,230.00 297.93,280.00 302.60,230.00 307.27,230.00 311.94,280.00 316.62,230.00 321.29,230.00 325.96,280.00 330.63,230.00 335.30,230.00 339.97,280.00 344.65,230.00 349.32,280.00 353.99,230.00 358.66,230.00 363.33,280.00 368.01,230.00 372.68,230.00 377.35,280.00 382.02,230.00 386.69,230.00 391.36,280.00 396.04,230.00 400.71,280.00 405.38,230.00 410.05,230.00 414.72,280.00 419.39,230.00 424.07,230.00 428.74,280.00 433.41,230.00 438.08,230.00 442.75,280.00 447.42,230.00 452.10,230.00 456.77,280.00 461.44,230.00 466.11,230.00 470.78,280.00 475.45,230.00 480.13,230.00 484.80,280.00 489.47,230.00 494.14,280.00 498.81,230.00 503.48,230.00 508.16,280.00 512.83,230.00 517.50,230.00 522.17,280.00 526.84,230.00 531.52,230.00 536.19,280.00 540.86,230.00 545.53,230.00 550.20,280.00 554.87,230.00 559.55,230.00 564.22,280.00 568.89,230.00 573.56,230.00 578.23,280.00 582.90,230.00 587.58,230.00 592.25,280.00 596.92,230.00 601.59,230.00 606.26,280.00 610.93,230.00 615.61,230.00 620.28,280.00 624.95,230.00 629.62,230.00 634.29,280.00 638.96,230.00 643.64,280.00 648.31,230.00 652.98,230.00 657.65,230.00 662.32,280.00 666.99,230.00 671.67,280.00 676.34,230.00 681.01,230.00 685.68,280.00 690.35,230.00 695.03,230.00 699.70,280.00 704.37,230.00 709.04,230.00 713.71,280.00 718.38,230.00 723.06,230.00 727.73,280.00 732.40,230.00 737.07,230.00 741.74,280.00 746.41,230.00 751.09,230.00 755.76,280.00 760.43,230.00 765.10,280.00 769.77,230.00 774.44,230.00 779.12,280.00 783.79,230.00 788.46,230.00 793.13,280.00 797.80,230.00 802.47,230.00 807.15,280.00 811.82,230.00 816.49,230.00 821.16,280.00 825.83,230.00 830.51,230.00 835.18,280.00 839.85,230.00 844.52,230.00 849.19,280.00 853.86,230.00 858.54,230.00 863.21,280.00 867.88,230.00 872.55,230.00 877.22,280.00 881.89,230.00 886.57,230.00 891.24,280.00 895.91,230.00 900.58,280.00 905.25,280.00 909.92,280.00 914.60,280.00 919.27,280.00 923.94,280.00 928.61,280.00 933.28,280.00 937.95,280.00 942.63,280.00 947.30,280.00 951.97,280.00 956.64,280.00 961.31,280.00 965.98,280.00 970.66,280.00 975.33,280.00 980.00,280.00"/><polyline fill="none" stroke="#2563eb" stroke-width="2" points="55.00,280.00 59.67,280.00 64.34,280.00 69.02,280.00 73.69,280.00 78.36,280.00 83.03,280.00 87.70,230.00 92.37,280.00 97.05,280.00 101.72,280.00 106.39,230.00 111.06,280.00 115.73,280.00 120.40,230.00 125.08,280.00 129.75,230.00 134.42,280.00 139.09,230.00 143.76,280.00 148.43,280.00 153.11,230.00 157.78,280.00 162.45,280.00 167.12,230.00 171.79,280.00 176.46,230.00 181.14,280.00 185.81,280.00 190.48,230.00 195.15,280.00 199.82,280.00 204.49,230.00 209.17,280.00 213.84,280.00 218.51,230.00 223.18,280.00 227.85,280.00 232.53,230.00 237.20,280.00 241.87,280.00 246.54,230.00 251.21,280.00 255.88,280.00 260.56,230.00 265.23,280.00 269.90,280.00 274.57,230.00 279.24,280.00 283.91,280.00 288.59,230.00 293.26,280.00 297.93,230.00 302.60,280.00 307.27,280.00 311.94,230.00 316.62,280.00 321.29,230.00 325.96,280.00 330.63,280.00 335.30,230.00 339.97,280.00 344.65,230.00 349.32,280.00 353.99,230.00 358.66,280.00 363.33,280.00 368.01,230.00 372.68,280.00 377.35,230.00 382.02,280.00 386.69,280.00 391.36,230.00 396.04,280.00 400.71,230.00 405.38,280.00 410.05,280.00 414.72,230.00 419.39,280.00 424.07,230.00 428.74,280.00 433.41,280.00 438.08,230.00 442.75,280.00 447.42,230.00 452.10,280.00 456.77,280.00 461.44,230.00 466.11,280.00 470.78,230.00 475.45,280.00 480.13,280.00 484.80,230.00 489.47,280.00 494.14,230.00 498.81,280.00 503.48,230.00 508.16,280.00 512.83,280.00 517.50,230.00 522.17,280.00 526.84,230.00 531.52,280.00 536.19,230.00 540.86,280.00 545.53,280.00 550.20,230.00 554.87,280.00 559.55,230.00 564.22,280.00 568.89,280.00 573.56,230.00 578.23,280.00 582.90,230.00 587.58,280.00 592.25,280.00 596.92,230.00 601.59,280.00 606.26,230.00 610.93,280.00 615.61,230.00 620.28,280.00 624.95,280.00 629.62,230.00 634.29,280.00 638.96,230.00 643.64,280.00 648.31,230.00 652.98,280.00 657.65,280.00 662.32,230.00 666.99,280.00 671.67,230.00 676.34,280.00 681.01,280.00 685.68,230.00 690.35,280.00 695.03,230.00 699.70,280.00 704.37,280.00 709.04,230.00 713.71,280.00 718.38,230.00 723.06,280.00 727.73,280.00 732.40,230.00 737.07,280.00 741.74,230.00 746.41,280.00 751.09,280.00 755.76,230.00 760.43,280.00 765.10,230.00 769.77,280.00 774.44,230.00 779.12,280.00 783.79,280.00 788.46,230.00 793.13,280.00 797.80,230.00 802.47,280.00 807.15,280.00 811.82,230.00 816.49,280.00 821.16,280.00 825.83,230.00 830.51,280.00 835.18,230.00 839.85,280.00 844.52,230.00 849.19,280.00 853.86,280.00 858.54,230.00 863.21,280.00 867.88,230.00 872.55,280.00 877.22,280.00 881.89,230.00 886.57,280.00 891.24,230.00 895.91,280.00 900.58,280.00 905.25,280.00 909.92,280.00 914.60,280.00 919.27,280.00 923.94,280.00 928.61,280.00 933.28,280.00 937.95,280.00 942.63,280.00 947.30,280.00 951.97,280.00 956.64,280.00 961.31,280.00 965.98,280.00 970.66,280.00 975.33,280.00 980.00,280.00"/><text x="760" y="46" font-size="12" fill="#ef4444">Traditional</text><text x="860" y="46" font-size="12" fill="#2563eb">FullPipeline</text></svg>