<svg xmlns="http://www.w3.org/2000/svg" width="1000" height="320"><rect x="0" y="0" width="1000" height="320" fill="#fff"/><text x="55" y="18" font-size="14" fill="#111">token_heavy: TTFT p95 per second</text><line x1="55" y1="30" x2="55" y2="280" stroke="#999"/><line x1="55" y1="280" x2="980" y2="280" stroke="#999"/><polyline fill="none" stroke="#ef4444" stroke-width="2" points="55.00,245.34 59.67,233.45 64.34,235.67 69.02,233.78 73.69,231.61 78.36,217.43 83.03,218.23 87.70,211.80 92.37,217.77 97.05,234.99 101.72,235.43 106.39,232.73 111.06,180.80 115.73,66.96 120.40,43.97 125.08,46.03 129.75,45.70 134.42,45.09 139.09,42.60 143.76,44.30 148.43,45.25 153.11,45.29 157.78,41.38 162.45,39.98 167.12,38.90 171.79,38.74 176.46,41.79 181.14,38.60 185.81,42.69 190.48,41.35 195.15,39.97 199.82,45.05 204.49,41.23 209.17,40.95 213.84,39.40 218.51,45.86 223.18,43.51 227.85,44.14 232.53,39.36 237.20,38.91 241.87,41.66 246.54,46.19 251.21,49.00 255.88,47.90 260.56,44.18 265.23,42.54 269.90,36.92 274.57,40.27 279.24,45.56 283.91,44.51 288.59,46.55 293.26,44.35 297.93,42.25 302.60,42.36 307.27,41.53 311.94,36.70 316.62,44.83 321.29,44.03 325.96,43.61 330.63,39.27 335.30,45.03 339.97,42.77 344.65,41.45 349.32,44.98 353.99,45.08 358.66,44.11 363.33,40.53 368.01,41.12 372.68,44.22 377.35,48.77 382.02,42.64 386.69,40.65 391.36,44.34 396.04,42.45 400.71,43.54 405.38,44.30 410.05,44.76 414.72,41.93 419.39,41.14 424.07,41.16 428.74,42.60 433.41,47.86 438.08,37.88 442.75,40.15 447.42,37.28 452.10,47.89 456.77,45.31 461.44,43.35 466.11,44.63 470.78,46.35 475.45,41.79 480.13,45.58 484.80,47.11 489.47,45.96 494.14,42.51 498.81,44.04 503.48,44.92 508.16,46.62 512.83,38.58 517.50,42.62 522.17,37.71 526.84,46.25 531.52,46.36 536.19,42.57 540.86,41.34 545.53,40.75 550.20,39.82 554.87,39.29 559.55,46.31 564.22,46.10 568.89,40.34 573.56,43.33 578.23,40.95 582.90,43.97 587.58,45.81 592.25,40.87 596.92,40.19 601.59,45.10 606.26,43.43 610.93,43.74 615.61,40.06 620.28,45.30 624.95,42.53 629.62,40.77 634.29,42.31 638.96,37.07 643.64,37.49 648.31,45.20 652.98,43.08 657.65,39.85 662.32,43.01 666.99,41.80 671.67,42.75 676.34,45.82 681.01,34.51 685.68,42.27 690.35,43.19 695.03,43.74 699.70,45.27 704.37,45.26 709.04,35.49 713.71,42.45 718.38,43.86 723.06,48.95 727.73,45.12 732.40,48.04 737.07,44.08 741.74,44.59 746.41,47.39 751.09,44.21 755.76,43.36 760.43,39.33 765.10,43.51 769.77,44.11 774.44,48.37 779.12,44.77 783.79,40.42 788.46,36.89 793.13,44.17 797.80,43.27 802.47,45.34 807.15,41.61 811.82,45.29 816.49,44.58 821.16,42.63 825.83,41.12 830.51,46.98 835.18,42.66 839.85,40.21 844.52,42.19 849.19,40.90 853.86,47.28 858.54,42.29 863.21,44.27 867.88,39.10 872.55,39.86 877.22,42.11 881.89,39.70 886.57,40.89 891.24,41.40 895.91,43.82 900.58,41.00 905.25,42.48 909.92,280.00 914.60,280.00 919.27,280.00 923.94,280.00 928.61,280.00 933.28,280.00 937.95,280.00 942.63,280.00 947.30,280.00 951.97,280.00 956.64,280.00 961.31,280.00 965.98,280.00 970.66,280.00 975.33,280.00 980.00,280.00"/><polyline fill="none" stroke="#2563eb" stroke-width="2" points="55.00,234.80 59.67,55.98 64.34,51.22 69.02,52.59 73.69,52.32 78.36,49.57 83.03,45.52 87.70,45.24 92.37,42.94 97.05,34.65 101.72,45.02 106.39,49.48 111.06,34.88 115.73,34.69 120.40,38.57 125.08,40.33 129.75,48.14 134.42,45.09 139.09,38.89 143.76,42.99 148.43,42.31 153.11,43.22 157.78,40.72 162.45,39.98 167.12,42.47 171.79,41.15 176.46,39.87 181.14,34.13 185.81,38.74 190.48,30.61 195.15,37.54 199.82,36.32 204.49,34.31 209.17,42.55 213.84,33.44 218.51,38.70 223.18,37.27 227.85,37.36 232.53,32.11 237.20,35.47 241.87,38.49 246.54,36.61 251.21,41.32 255.88,33.41 260.56,31.90 265.23,42.54 269.90,31.29 274.57,38.13 279.24,43.02 283.91,38.39 288.59,42.71 293.26,34.65 297.93,34.38 302.60,38.09 307.27,34.90 311.94,40.14 316.62,34.51 321.29,40.19 325.96,39.62 330.63,40.28 335.30,39.80 339.97,35.58 344.65,36.81 349.32,33.68 353.99,34.30 358.66,31.98 363.33,40.02 368.01,38.10 372.68,36.13 377.35,37.50 382.02,37.44 386.69,31.56 391.36,40.75 396.04,33.15 400.71,34.14 405.38,36.84 410.05,34.71 414.72,36.25 419.39,35.19 424.07,35.75 428.74,33.38 433.41,33.07 438.08,35.31 442.75,33.04 447.42,35.30 452.10,34.50 456.77,33.47 461.44,30.21 466.11,37.25 470.78,33.71 475.45,31.90 480.13,32.66 484.80,37.47 489.47,31.71 494.14,34.04 498.81,33.84 503.48,38.59 508.16,34.09 512.83,34.71 517.50,36.66 522.17,31.41 526.84,31.99 531.52,35.75 536.19,33.92 540.86,33.97 545.53,31.96 550.20,33.65 554.87,32.65 559.55,32.56 564.22,36.59 568.89,36.99 573.56,32.04 578.23,40.43 582.90,37.43 587.58,37.29 592.25,32.66 596.92,32.47 601.59,36.70 606.26,34.07 610.93,39.21 615.61,34.59 620.28,33.84 624.95,32.42 629.62,32.68 634.29,39.55 638.96,35.82 643.64,34.59 648.31,30.97 652.98,31.43 657.65,35.82 662.32,35.43 666.99,38.73 671.67,38.69 676.34,37.89 681.01,30.93 685.68,37.50 690.35,30.30 695.03,34.84 699.70,31.50 704.37,34.31 709.04,34.62 713.71,37.33 718.38,33.87 723.06,34.57 727.73,42.19 732.40,32.82 737.07,33.70 741.74,36.58 746.41,33.84 751.09,33.04 755.76,39.52 760.43,38.30 765.10,32.19 769.77,34.13 774.44,36.50 779.12,39.44 783.79,35.81 788.46,35.77 793.13,35.73 797.80,39.11 802.47,31.88 807.15,33.57 811.82,38.77 816.49,35.80 821.16,43.21 825.83,32.99 830.51,39.45 835.18,34.22 839.85,38.53 844.52,32.62 849.19,42.02 853.86,36.93 858.54,30.57 863.21,34.23 867.88,38.57 872.55,36.38 877.22,40.56 881.89,33.02 886.57,38.76 891.24,35.16 895.91,41.42 900.58,30.00 905.25,40.01 909.92,280.00 914.60,280.00 919.27,280.00 923.94,280.00 928.61,280.00 933.28,280.00 937.95,280.00 942.63,280.00 947.30,280.00 951.97,280.00 956.64,280.00 961.31,280.00 965.98,280.00 970.66,280.00 975.33,280.00 980.00,280.00"/><text x="760" y="46" font-size="12" fill="#ef4444">Traditional</text><text x="860" y="46" font-size="12" fill="#2563eb">FullPipeline</text></svg>