<svg xmlns="http://www.w3.org/2000/svg" width="1000" height="320"><rect x="0" y="0" width="1000" height="320" fill="#fff"/><text x="55" y="18" font-size="14" fill="#111">mixed_bursty: GC freq per second</text><line x1="55" y1="30" x2="55" y2="280" stroke="#999"/><line x1="55" y1="280" x2="980" y2="280" stroke="#999"/><polyline fill="none" stroke="#ef4444" stroke-width="2" points="55.00,280.00 59.67,155.00 64.34,155.00 69.02,155.00 73.69,30.00 78.36,155.00 83.03,155.00 87.70,155.00 92.37,155.00 97.05,155.00 101.72,30.00 106.39,155.00 111.06,155.00 115.73,155.00 120.40,155.00 125.08,30.00 129.75,155.00 134.42,155.00 139.09,155.00 143.76,155.00 148.43,155.00 153.11,30.00 157.78,155.00 162.45,155.00 167.12,155.00 171.79,155.00 176.46,30.00 181.14,155.00 185.81,155.00 190.48,30.00 195.15,155.00 199.82,155.00 204.49,155.00 209.17,155.00 213.84,155.00 218.51,30.00 223.18,155.00 227.85,155.00 232.53,30.00 237.20,155.00 241.87,30.00 246.54,155.00 251.21,155.00 255.88,30.00 260.56,155.00 265.23,30.00 269.90,155.00 274.57,30.00 279.24,155.00 283.91,30.00 288.59,155.00 293.26,30.00 297.93,155.00 302.60,30.00 307.27,30.00 311.94,155.00 316.62,30.00 321.29,155.00 325.96,155.00 330.63,30.00 335.30,155.00 339.97,155.00 344.65,30.00 349.32,30.00 353.99,155.00 358.66,155.00 363.33,30.00 368.01,155.00 372.68,30.00 377.35,30.00 382.02,155.00 386.69,155.00 391.36,30.00 396.04,155.00 400.71,30.00 405.38,155.00 410.05,30.00 414.72,155.00 419.39,155.00 424.07,30.00 428.74,30.00 433.41,155.00 438.08,155.00 442.75,30.00 447.42,155.00 452.10,155.00 456.77,30.00 461.44,280.00 466.11,30.00 470.78,155.00 475.45,155.00 480.13,155.00 484.80,155.00 489.47,30.00 494.14,155.00 498.81,155.00 503.48,155.00 508.16,155.00 512.83,155.00 517.50,155.00 522.17,155.00 526.84,30.00 531.52,155.00 536.19,155.00 540.86,155.00 545.53,155.00 550.20,155.00 554.87,155.00 559.55,155.00 564.22,155.00 568.89,155.00 573.56,30.00 578.23,155.00 582.90,280.00 587.58,155.00 592.25,155.00 596.92,155.00 601.59,155.00 606.26,155.00 610.93,30.00 615.61,155.00 620.28,30.00 624.95,155.00 629.62,155.00 634.29,30.00 638.96,30.00 643.64,155.00 648.31,30.00 652.98,155.00 657.65,30.00 662.32,155.00 666.99,30.00 671.67,155.00 676.34,30.00 681.01,30.00 685.68,155.00 690.35,155.00 695.03,30.00 699.70,155.00 704.37,155.00 709.04,30.00 713.71,155.00 718.38,30.00 723.06,155.00 727.73,30.00 732.40,155.00 737.07,155.00 741.74,30.00 746.41,155.00 751.09,30.00 755.76,155.00 760.43,30.00 765.10,155.00 769.77,30.00 774.44,155.00 779.12,30.00 783.79,155.00 788.46,155.00 793.13,30.00 797.80,155.00 802.47,155.00 807.15,155.00 811.82,155.00 816.49,155.00 821.16,155.00 825.83,155.00 830.51,30.00 835.18,280.00 839.85,155.00 844.52,30.00 849.19,155.00 853.86,155.00 858.54,155.00 863.21,155.00 867.88,155.00 872.55,155.00 877.22,30.00 881.89,155.00 886.57,155.00 891.24,155.00 895.91,280.00 900.58,280.00 905.25,280.00 909.92,280.00 914.60,280.00 919.27,280.00 923.94,280.00 928.61,280.00 933.28,280.00 937.95,280.00 942.63,280.00 947.30,280.00 951.97,280.00 956.64,280.00 961.31,280.00 965.98,280.00 970.66,280.00 975.33,280.00 980.00,280.00"/><polyline fill="none" stroke="#2563eb" stroke-width="2" points="55.00,280.00 59.67,280.00 64.34,155.00 69.02,280.00 73.69,155.00 78.36,155.00 83.03,280.00 87.70,155.00 92.37,155.00 97.05,280.00 101.72,155.00 106.39,155.00 111.06,155.00 115.73,280.00 120.40,155.00 125.08,155.00 129.75,155.00 134.42,280.00 139.09,155.00 143.76,155.00 148.43,280.00 153.11,155.00 157.78,155.00 162.45,280.00 167.12,155.00 171.79,155.00 176.46,155.00 181.14,280.00 185.81,155.00 190.48,155.00 195.15,280.00 199.82,155.00 204.49,155.00 209.17,280.00 213.84,155.00 218.51,280.00 223.18,155.00 227.85,155.00 232.53,155.00 237.20,155.00 241.87,280.00 246.54,155.00 251.21,155.00 255.88,280.00 260.56,155.00 265.23,155.00 269.90,280.00 274.57,155.00 279.24,155.00 283.91,280.00 288.59,155.00 293.26,280.00 297.93,155.00 302.60,280.00 307.27,155.00 311.94,155.00 316.62,280.00 321.29,155.00 325.96,280.00 330.63,155.00 335.30,280.00 339.97,155.00 344.65,280.00 349.32,155.00 353.99,280.00 358.66,155.00 363.33,280.00 368.01,280.00 372.68,155.00 377.35,280.00 382.02,155.00 386.69,280.00 391.36,155.00 396.04,280.00 400.71,155.00 405.38,280.00 410.05,155.00 414.72,280.00 419.39,280.00 424.07,155.00 428.74,280.00 433.41,155.00 438.08,280.00 442.75,280.00 447.42,155.00 452.10,280.00 456.77,155.00 461.44,280.00 466.11,280.00 470.78,155.00 475.45,280.00 480.13,280.00 484.80,155.00 489.47,280.00 494.14,155.00 498.81,280.00 503.48,280.00 508.16,155.00 512.83,280.00 517.50,155.00 522.17,280.00 526.84,280.00 531.52,155.00 536.19,280.00 540.86,280.00 545.53,155.00 550.20,280.00 554.87,155.00 559.55,280.00 564.22,280.00 568.89,155.00 573.56,280.00 578.23,155.00 582.90,280.00 587.58,280.00 592.25,155.00 596.92,280.00 601.59,155.00 606.26,280.00 610.93,280.00 615.61,155.00 620.28,280.00 624.95,155.00 629.62,280.00 634.29,155.00 638.96,280.00 643.64,155.00 648.31,280.00 652.98,280.00 657.65,155.00 662.32,280.00 666.99,155.00 671.67,280.00 676.34,155.00 681.01,280.00 685.68,155.00 690.35,280.00 695.03,155.00 699.70,280.00 704.37,155.00 709.04,280.00 713.71,155.00 718.38,280.00 723.06,280.00 727.73,155.00 732.40,280.00 737.07,155.00 741.74,280.00 746.41,155.00 751.09,280.00 755.76,155.00 760.43,280.00 765.10,280.00 769.77,155.00 774.44,280.00 779.12,155.00 783.79,280.00 788.46,280.00 793.13,155.00 797.80,280.00 802.47,280.00 807.15,155.00 811.82,280.00 816.49,155.00 821.16,280.00 825.83,280.00 830.51,155.00 835.18,280.00 839.85,280.00 844.52,155.00 849.19,280.00 853.86,155.00 858.54,280.00 863.21,280.00 867.88,155.00 872.55,280.00 877.22,280.00 881.89,155.00 886.57,280.00 891.24,155.00 895.91,280.00 900.58,280.00 905.25,280.00 909.92,280.00 914.60,280.00 919.27,280.00 923.94,280.00 928.61,280.00 933.28,280.00 937.95,280.00 942.63,280.00 947.30,280.00 951.97,280.00 956.64,280.00 961.31,280.00 965.98,280.00 970.66,280.00 975.33,280.00 980.00,280.00"/><text x="760" y="46" font-size="12" fill="#ef4444">Traditional</text><text x="860" y="46" font-size="12" fill="#2563eb">FullPipeline</text></svg>