<svg xmlns="http://www.w3.org/2000/svg" width="1000" height="320"><rect x="0" y="0" width="1000" height="320" fill="#fff"/><text x="55" y="18" font-size="14" fill="#111">mixed_bursty: TTFT p95 per second</text><line x1="55" y1="30" x2="55" y2="280" stroke="#999"/><line x1="55" y1="280" x2="980" y2="280" stroke="#999"/><polyline fill="none" stroke="#ef4444" stroke-width="2" points="55.00,251.30 59.67,250.67 64.34,242.10 69.02,250.61 73.69,248.00 78.36,254.66 83.03,243.33 87.70,246.75 92.37,237.90 97.05,239.61 101.72,241.17 106.39,240.75 111.06,255.02 115.73,246.85 120.40,256.01 125.08,243.60 129.75,237.70 134.42,237.19 139.09,245.28 143.76,245.36 148.43,242.01 153.11,242.71 157.78,237.84 162.45,246.97 167.12,249.08 171.79,246.62 176.46,243.04 181.14,241.29 185.81,241.88 190.48,241.38 195.15,245.52 199.82,242.76 204.49,241.01 209.17,243.13 213.84,240.27 218.51,227.94 223.18,160.02 227.85,60.56 232.53,46.71 237.20,39.09 241.87,33.69 246.54,43.00 251.21,42.76 255.88,35.09 260.56,36.40 265.23,34.96 269.90,44.96 274.57,36.78 279.24,30.00 283.91,38.21 288.59,37.21 293.26,31.85 297.93,32.27 302.60,46.00 307.27,30.92 311.94,40.74 316.62,41.26 321.29,38.52 325.96,45.11 330.63,36.39 335.30,47.00 339.97,36.30 344.65,44.86 349.32,33.58 353.99,35.64 358.66,39.98 363.33,37.42 368.01,37.77 372.68,39.13 377.35,35.84 382.02,36.36 386.69,41.11 391.36,37.01 396.04,32.39 400.71,37.53 405.38,34.96 410.05,36.76 414.72,34.20 419.39,38.87 424.07,39.53 428.74,41.50 433.41,34.99 438.08,81.95 442.75,95.77 447.42,125.05 452.10,152.47 456.77,231.15 461.44,243.94 466.11,248.42 470.78,245.54 475.45,254.21 480.13,246.54 484.80,246.18 489.47,243.08 494.14,239.71 498.81,252.63 503.48,249.40 508.16,247.74 512.83,242.68 517.50,245.21 522.17,250.63 526.84,241.67 531.52,241.72 536.19,244.57 540.86,246.88 545.53,247.39 550.20,244.65 554.87,247.45 559.55,247.78 564.22,250.42 568.89,244.45 573.56,240.57 578.23,246.51 582.90,240.20 587.58,256.13 592.25,256.51 596.92,239.35 601.59,241.99 606.26,250.66 610.93,245.56 615.61,234.31 620.28,140.48 624.95,57.45 629.62,43.92 634.29,38.74 638.96,31.86 643.64,33.95 648.31,35.06 652.98,38.88 657.65,35.38 662.32,42.31 666.99,35.05 671.67,32.45 676.34,37.42 681.01,31.46 685.68,31.37 690.35,36.53 695.03,42.45 699.70,47.28 704.37,42.00 709.04,38.98 713.71,33.36 718.38,34.33 723.06,33.10 727.73,39.00 732.40,34.19 737.07,36.20 741.74,35.92 746.41,37.75 751.09,35.57 755.76,31.29 760.43,39.13 765.10,41.40 769.77,34.53 774.44,38.52 779.12,33.64 783.79,40.23 788.46,107.53 793.13,127.38 797.80,203.36 802.47,246.95 807.15,241.33 811.82,242.05 816.49,241.09 821.16,248.19 825.83,245.71 830.51,242.17 835.18,240.02 839.85,245.54 844.52,240.26 849.19,241.48 853.86,240.59 858.54,257.24 863.21,242.87 867.88,244.15 872.55,249.25 877.22,241.50 881.89,239.68 886.57,245.14 891.24,249.48 895.91,243.65 900.58,280.00 905.25,280.00 909.92,280.00 914.60,280.00 919.27,280.00 923.94,280.00 928.61,280.00 933.28,280.00 937.95,280.00 942.63,280.00 947.30,280.00 951.97,280.00 956.64,280.00 961.31,280.00 965.98,280.00 970.66,280.00 975.33,280.00 980.00,280.00"/><polyline fill="none" stroke="#2563eb" stroke-width="2" points="55.00,185.25 59.67,59.81 64.34,52.71 69.02,50.89 73.69,51.60 78.36,53.29 83.03,49.07 87.70,52.71 92.37,47.22 97.05,47.48 101.72,54.69 106.39,47.36 111.06,50.49 115.73,47.40 120.40,47.42 125.08,49.36 129.75,50.17 134.42,45.57 139.09,52.76 143.76,49.09 148.43,52.01 153.11,46.89 157.78,45.58 162.45,37.24 167.12,51.16 171.79,51.94 176.46,53.37 181.14,39.82 185.81,39.62 190.48,37.16 195.15,38.14 199.82,50.71 204.49,50.00 209.17,39.42 213.84,43.84 218.51,49.49 223.18,50.14 227.85,44.67 232.53,43.31 237.20,40.97 241.87,49.83 246.54,45.48 251.21,48.96 255.88,48.70 260.56,49.98 265.23,46.06 269.90,49.25 274.57,45.58 279.24,49.86 283.91,50.61 288.59,48.30 293.26,48.01 297.93,50.62 302.60,39.60 307.27,52.15 311.94,43.76 316.62,44.78 321.29,53.94 325.96,45.11 330.63,54.03 335.30,52.59 339.97,40.15 344.65,52.63 349.32,46.49 353.99,44.46 358.66,49.46 363.33,49.24 368.01,52.50 372.68,52.59 377.35,48.39 382.02,46.99 386.69,52.74 391.36,48.46 396.04,53.51 400.71,54.73 405.38,48.73 410.05,51.42 414.72,48.30 419.39,48.95 424.07,47.77 428.74,47.41 433.41,48.49 438.08,48.84 442.75,49.71 447.42,48.63 452.10,51.97 456.77,48.35 461.44,55.13 466.11,53.99 470.78,40.73 475.45,54.83 480.13,53.68 484.80,45.12 489.47,50.68 494.14,46.64 498.81,54.59 503.48,51.31 508.16,44.94 512.83,50.38 517.50,34.25 522.17,51.51 526.84,55.05 531.52,47.36 536.19,53.20 540.86,51.61 545.53,50.77 550.20,55.97 554.87,50.63 559.55,48.72 564.22,47.94 568.89,51.42 573.56,45.03 578.23,52.33 582.90,48.48 587.58,52.54 592.25,53.33 596.92,52.03 601.59,47.46 606.26,46.70 610.93,55.09 615.61,47.71 620.28,52.60 624.95,52.53 629.62,46.35 634.29,49.20 638.96,47.48 643.64,52.21 648.31,49.68 652.98,53.46 657.65,48.55 662.32,51.61 666.99,53.92 671.67,50.02 676.34,46.87 681.01,50.93 685.68,52.23 690.35,51.46 695.03,48.23 699.70,52.02 704.37,52.28 709.04,47.88 713.71,51.62 718.38,47.28 723.06,52.23 727.73,53.21 732.40,51.12 737.07,49.39 741.74,53.34 746.41,48.52 751.09,48.01 755.76,46.97 760.43,48.06 765.10,51.34 769.77,47.87 774.44,47.92 779.12,49.87 783.79,52.36 788.46,52.89 793.13,47.05 797.80,52.06 802.47,53.39 807.15,52.04 811.82,52.13 816.49,49.53 821.16,54.84 825.83,42.73 830.51,51.82 835.18,50.47 839.85,42.20 844.52,49.87 849.19,54.52 853.86,48.95 858.54,45.24 863.21,54.48 867.88,51.64 872.55,53.04 877.22,54.43 881.89,45.34 886.57,47.25 891.24,51.57 895.91,54.00 900.58,46.47 905.25,280.00 909.92,280.00 914.60,280.00 919.27,280.00 923.94,280.00 928.61,280.00 933.28,280.00 937.95,280.00 942.63,280.00 947.30,280.00 951.97,280.00 956.64,280.00 961.31,280.00 965.98,280.00 970.66,280.00 975.33,280.00 980.00,280.00"/><text x="760" y="46" font-size="12" fill="#ef4444">Traditional</text><text x="860" y="46" font-size="12" fill="#2563eb">FullPipeline</text></svg>