<svg xmlns="http://www.w3.org/2000/svg" width="1200" height="420"><rect x="0" y="0" width="1200" height="420" fill="#ffffff"/><text x="70" y="22" font-size="18" fill="#111827">Scenario Comparison - P95 TTFT (ms)</text><text x="70" y="40" font-size="12" fill="#6b7280">Milliseconds</text><line x1="70" y1="45" x2="70" y2="345" stroke="#9ca3af"/><line x1="70" y1="345" x2="1180" y2="345" stroke="#9ca3af"/><line x1="70" y1="45.00" x2="1180" y2="45.00" stroke="#f3f4f6"/><text x="62" y="49.00" text-anchor="end" font-size="11" fill="#6b7280">1498.46</text><line x1="70" y1="105.00" x2="1180" y2="105.00" stroke="#f3f4f6"/><text x="62" y="109.00" text-anchor="end" font-size="11" fill="#6b7280">1198.77</text><line x1="70" y1="165.00" x2="1180" y2="165.00" stroke="#f3f4f6"/><text x="62" y="169.00" text-anchor="end" font-size="11" fill="#6b7280">899.08</text><line x1="70" y1="225.00" x2="1180" y2="225.00" stroke="#f3f4f6"/><text x="62" y="229.00" text-anchor="end" font-size="11" fill="#6b7280">599.38</text><line x1="70" y1="285.00" x2="1180" y2="285.00" stroke="#f3f4f6"/><text x="62" y="289.00" text-anchor="end" font-size="11" fill="#6b7280">299.69</text><line x1="70" y1="345.00" x2="1180" y2="345.00" stroke="#f3f4f6"/><text x="62" y="349.00" text-anchor="end" font-size="11" fill="#6b7280">0.00</text><text x="70.00" y="363" text-anchor="middle" font-size="10" fill="#4b5563" transform="rotate(20 70.00,363)">steady_balanced</text><text x="292.00" y="363" text-anchor="middle" font-size="10" fill="#4b5563" transform="rotate(20 292.00,363)">steady_high_pressure</text><text x="514.00" y="363" text-anchor="middle" font-size="10" fill="#4b5563" transform="rotate(20 514.00,363)">bursty_traffic</text><text x="736.00" y="363" text-anchor="middle" font-size="10" fill="#4b5563" transform="rotate(20 736.00,363)">long_context_heavy</text><text x="958.00" y="363" text-anchor="middle" font-size="10" fill="#4b5563" transform="rotate(20 958.00,363)">short_chat_realtime</text><text x="1180.00" y="363" text-anchor="middle" font-size="10" fill="#4b5563" transform="rotate(20 1180.00,363)">token_quota_tight</text><polyline fill="none" stroke="#ef4444" stroke-width="2.5" points="70.00,302.42 292.00,76.55 514.00,77.12 736.00,62.06 958.00,90.74 1180.00,66.86"/><polyline fill="none" stroke="#2563eb" stroke-width="2.5" points="70.00,300.72 292.00,69.28 514.00,76.27 736.00,45.00 958.00,90.23 1180.00,56.03"/><circle cx="70.00" cy="302.42" r="3" fill="#ef4444"/><circle cx="70.00" cy="300.72" r="3" fill="#2563eb"/><circle cx="292.00" cy="76.55" r="3" fill="#ef4444"/><circle cx="292.00" cy="69.28" r="3" fill="#2563eb"/><circle cx="514.00" cy="77.12" r="3" fill="#ef4444"/><circle cx="514.00" cy="76.27" r="3" fill="#2563eb"/><circle cx="736.00" cy="62.06" r="3" fill="#ef4444"/><circle cx="736.00" cy="45.00" r="3" fill="#2563eb"/><circle cx="958.00" cy="90.74" r="3" fill="#ef4444"/><circle cx="958.00" cy="90.23" r="3" fill="#2563eb"/><circle cx="1180.00" cy="66.86" r="3" fill="#ef4444"/><circle cx="1180.00" cy="56.03" r="3" fill="#2563eb"/><line x1="1010" y1="55" x2="1032" y2="55" stroke="#ef4444" stroke-width="3"/><text x="1038" y="59" font-size="12" fill="#374151">Fixed</text><line x1="1010" y1="75" x2="1032" y2="75" stroke="#2563eb" stroke-width="3"/><text x="1038" y="79" font-size="12" fill="#374151">AIMD</text></svg>